<svg xmlns="http://www.w3.org/2000/svg" fill="none" viewBox="0 0 123 28"><path fill="#fff" d="M25.024 6.905c-2.637 0-4.96.849-6.096 2.794V7.258h-6.136v11.409c0 2.832-1.827 3.72-3.641 3.72-1.815 0-2.99-.927-2.99-2.99V7.258H0v12.61c0 5.157 2.95 7.99 7.14 7.99 2.272 0 4.517-.862 5.666-2.598v2.323h6.16v-11.33c0-2.715 1.633-3.877 3.682-3.877 1.828 0 3.224.887 3.224 3.028v12.18h6.162V14.736c.013-4.803-2.246-7.832-7.01-7.832ZM57.253 6.905c-2.598 0-4.921.849-6.057 2.716V0h-6.161v27.582h6.161v-11.33c0-2.715 1.632-3.877 3.681-3.877 1.828 0 3.224.887 3.224 3.028v12.18h6.162V14.737c.013-4.804-2.232-7.833-7.01-7.833ZM79.797 18.654c0 2.832-1.828 3.72-3.642 3.72-1.815 0-2.99-.927-2.99-2.99V7.244h-6.16v12.61c0 5.157 2.95 7.99 7.14 7.99 2.323 0 4.62-.888 5.743-2.716v2.441h6.057V7.258H79.81v11.396h-.013ZM116.53 0v10.13c-1.084-2.128-3.381-3.225-6.136-3.225-4.882 0-9.033 3.603-9.033 10.548 0 7.023 4.269 10.547 9.307 10.547 3.421 0 5.627-1.632 6.318-3.485v3.067h5.705V0h-6.161Zm-4.465 22.348c-2.441 0-4.464-1.475-4.464-4.843 0-3.342 1.984-4.739 4.464-4.739 2.48 0 4.504 1.397 4.504 4.726 0 3.38-2.063 4.856-4.504 4.856ZM98.28 7.258a3.086 3.086 0 0 0-3.08 3.08v-3.08h-6.174v20.324h6.161V10.338a3.086 3.086 0 0 0 3.08 3.081 3.086 3.086 0 0 0 3.081-3.08c0-1.697-1.37-3.081-3.067-3.081ZM38.443 13.576a3.107 3.107 0 1 0 0-6.214 3.107 3.107 0 0 0 0 6.214ZM38.443 27.582a3.107 3.107 0 1 0 0-6.213 3.107 3.107 0 0 0 0 6.213Z"/></svg>