<svg width="1440" height="714" viewBox="0 0 1440 714" fill="none" xmlns="http://www.w3.org/2000/svg">
<path d="M-319 474.505C-197.656 474.505 -133.98 272.178 -35.4635 272.178C39.0249 272.178 14.9963 0 153.16 0C270.9 0 285.317 84.303 400.654 84.303C489.56 84.303 512.387 240.866 626.522 293.856C745.464 348.051 774.298 243.274 875.218 243.274C959.318 243.274 1027.8 315.534 1114.3 349.255C1299.32 420.311 1399.04 243.274 1550.42 328.782C1581.66 346.847 1686.18 474.505 1759.47 474.505H-319Z" fill="url(#paint0_linear_101_680)"/>
<path d="M1801.47 532.505C1680.12 532.505 1616.45 330.178 1517.93 330.178C1443.44 330.178 1467.47 58 1329.31 58C1211.57 58 1197.15 142.303 1081.81 142.303C992.907 142.303 970.08 298.866 855.945 351.856C737.004 406.051 708.169 301.274 607.25 301.274C523.15 301.274 454.668 373.534 368.166 407.255C183.146 478.311 83.4279 301.274 -67.9519 386.782C-99.1889 404.847 -203.713 532.505 -277 532.505H1801.47Z" fill="url(#paint1_linear_101_680)"/>
<path d="M1556.47 532.696C1435.12 532.696 1371.45 330.369 1272.93 330.369C1198.44 330.369 1222.47 58.1904 1084.31 58.1904C966.567 58.1904 952.15 142.493 836.813 142.493C747.907 142.493 725.08 299.056 610.945 352.047C492.004 406.241 463.169 301.465 362.25 301.465C278.15 301.465 209.668 373.724 123.166 407.446C-61.8538 478.501 -161.572 301.465 -312.952 386.972C-344.189 405.037 -448.713 532.696 -522 532.696" stroke="url(#paint2_linear_101_680)" stroke-width="2"/>
<path d="M-514.395 542C-394.872 542 -332.152 339.673 -235.113 339.673C-161.742 339.673 -185.41 67.4946 -49.3196 67.4946C66.6534 67.4946 80.8543 151.798 194.461 151.798C282.032 151.798 304.517 308.36 416.94 361.351C534.096 415.545 562.497 310.769 661.903 310.769C744.741 310.769 812.195 383.029 897.399 416.75C1079.64 487.805 1177.86 310.769 1326.97 396.276C1357.74 414.341 1460.7 542 1532.88 542" stroke="url(#paint3_linear_101_680)" stroke-width="2"/>
<path d="M-968 713.357C-704.602 713.357 -723.416 231.959 -471.307 231.959C-292.572 231.959 -277.521 420.005 -155.229 420.005C34.7937 420.005 51.7263 74 232.342 74C371.567 74 407.314 331.623 586.048 416.244C772.308 504.626 817.462 361.711 975.501 361.711C1107.2 361.711 1150.47 245.122 1349.9 245.122C1628.35 245.122 1626.47 357.95 2032.86 357.95C2262.39 357.95 2190.89 713.357 2360.22 713.357H-968Z" fill="url(#paint4_linear_101_680)"/>
<rect y="27" width="1440" height="648" fill="url(#paint5_linear_101_680)"/>
<defs>
<linearGradient id="paint0_linear_101_680" x1="745.853" y1="304.084" x2="745.853" y2="-40.099" gradientUnits="userSpaceOnUse">
<stop stop-color="#B124EF" stop-opacity="0"/>
<stop offset="1" stop-color="#FF7485"/>
</linearGradient>
<linearGradient id="paint1_linear_101_680" x1="736.615" y1="362.084" x2="736.615" y2="17.901" gradientUnits="userSpaceOnUse">
<stop stop-color="#B124EF" stop-opacity="0"/>
<stop offset="1" stop-color="#FF7485"/>
</linearGradient>
<linearGradient id="paint2_linear_101_680" x1="491.615" y1="567.226" x2="491.615" y2="58.1904" gradientUnits="userSpaceOnUse">
<stop stop-color="#4366FF" stop-opacity="0"/>
<stop offset="1" stop-color="#05BEFE"/>
</linearGradient>
<linearGradient id="paint3_linear_101_680" x1="929.668" y1="542" x2="881.047" y2="19.9956" gradientUnits="userSpaceOnUse">
<stop stop-color="#FF7586" stop-opacity="0"/>
<stop offset="1" stop-color="#B124EF"/>
</linearGradient>
<linearGradient id="paint4_linear_101_680" x1="655.088" y1="576.551" x2="655.088" y2="55.0643" gradientUnits="userSpaceOnUse">
<stop stop-color="#4366FF" stop-opacity="0"/>
<stop offset="1" stop-color="#05BEFE"/>
</linearGradient>
<linearGradient id="paint5_linear_101_680" x1="720" y1="27" x2="720" y2="675" gradientUnits="userSpaceOnUse">
<stop stop-color="#0E0E0E" stop-opacity="0"/>
<stop offset="1" stop-color="#0E0E0E"/>
</linearGradient>
</defs>
</svg>
